<svg width="38" height="33" viewBox="0 0 38 33" fill="none" xmlns="http://www.w3.org/2000/svg">
<path d="M31.0591 28.2651C31.0925 28.6489 31.0103 29.0339 30.8229 29.3706C30.6355 29.7072 30.3516 29.9799 30.0078 30.1537C28.5015 30.9141 25.3604 31.8561 18.9517 32.0238C18.4987 32.0357 18.0616 32.0415 17.6402 32.0411C11.5923 32.0411 8.81903 30.8771 7.67699 30.1502C7.38007 29.9622 7.14118 29.6955 6.98691 29.3797C6.83265 29.0639 6.76907 28.7115 6.80326 28.3617V18.5951H31.0666L31.0591 28.2651Z" fill="url(#paint0_linear)"/>
<g filter="url(#filter0_d)">
<path d="M19.774 20.6143C14.1648 20.6027 8.60406 19.5746 3.36154 17.5797C3.28308 17.546 3.21276 17.4959 3.15531 17.4328C3.09787 17.3696 3.05464 17.2949 3.02855 17.2136C3.00246 17.1323 2.99412 17.0464 3.00408 16.9616C3.01404 16.8768 3.04207 16.7952 3.08629 16.7221C8.53513 7.71996 18.3104 2.25666 18.7245 2.02883C18.8124 1.98023 18.9112 1.95459 19.0116 1.95429C19.1121 1.95398 19.211 1.97903 19.2992 2.0271C19.7433 2.27054 30.2281 8.08426 34.9276 16.7216C34.9667 16.7935 34.9906 16.8727 34.9977 16.9543C35.0049 17.0359 34.9952 17.1181 34.9692 17.1957C34.9443 17.2741 34.9029 17.3463 34.8479 17.4074C34.7928 17.4685 34.7254 17.5172 34.65 17.5502C29.5932 19.6747 24.544 20.3339 19.774 20.6143Z" fill="url(#paint1_angular)"/>
</g>
<path d="M17.7073 32.0457C16.3571 32.0457 15.5146 31.9919 15.4492 31.9879C15.3029 31.9781 15.1657 31.913 15.0656 31.8058C14.9654 31.6987 14.9097 31.5575 14.9097 31.4108V22.3907C14.9097 22.2373 14.9707 22.0902 15.0791 21.9818C15.1875 21.8734 15.3346 21.8124 15.488 21.8124H22.5125C22.6659 21.8124 22.813 21.8734 22.9214 21.9818C23.0299 22.0902 23.0908 22.2373 23.0908 22.3907V31.2477C23.0908 31.3919 23.037 31.5309 22.9399 31.6374C22.8427 31.744 22.7093 31.8104 22.5657 31.8237C20.9504 31.971 19.3293 32.0451 17.7073 32.0457Z" fill="#F9E181"/>
<path d="M19.5064 2.83162C19.5574 2.73598 19.5843 2.62943 19.5851 2.5211C19.5817 2.48645 19.5751 2.45219 19.5654 2.41875C19.5575 2.37898 19.5453 2.3402 19.529 2.3031C19.5238 2.29327 19.5244 2.2817 19.5186 2.27129C19.5028 2.24958 19.4854 2.22909 19.4666 2.21C19.4533 2.18615 19.4382 2.16334 19.4214 2.14177C19.4134 2.13367 19.4018 2.13078 19.3925 2.12326C19.3622 2.09805 19.3292 2.07614 19.2942 2.05792C19.1985 2.00666 19.0917 1.97947 18.9831 1.9787C18.9483 1.98211 18.9138 1.98869 18.8802 1.99836C18.8413 2.00605 18.8033 2.01787 18.7669 2.03363C18.7559 2.03942 18.7437 2.03826 18.7333 2.04404C18.3199 2.27245 8.54921 7.73401 3.10268 16.7316C3.05988 16.8021 3.03268 16.881 3.02292 16.9629C3.01316 17.0449 3.02106 17.1279 3.0461 17.2066C3.07114 17.2852 3.11273 17.3575 3.16807 17.4187C3.22342 17.4799 3.29123 17.5286 3.36694 17.5614C4.49974 18.0545 5.67044 18.4556 6.86766 18.7606C6.90535 18.7683 6.9437 18.7721 6.98216 18.7722L6.98678 18.7728H6.99083C7.04869 18.7714 7.10601 18.7612 7.16084 18.7427C7.17812 18.7368 7.19511 18.7301 7.21172 18.7225C7.24941 18.7065 7.28528 18.6865 7.3187 18.6629C7.33471 18.6522 7.35015 18.6406 7.36496 18.6282C7.39749 18.5993 7.42659 18.5667 7.45169 18.5311C7.46152 18.5172 7.47309 18.5062 7.48176 18.4912L7.48755 18.4837C10.6769 12.7481 14.6986 7.5167 19.4214 2.95999C19.4301 2.95131 19.433 2.93975 19.4405 2.93107C19.466 2.90058 19.4881 2.86743 19.5064 2.83219V2.83162Z" fill="#F9E181"/>
<path d="M29.1896 15.3465C29.8016 16.3131 30.391 17.2939 30.9573 18.288" stroke="#274D5A" stroke-width="1.32004" stroke-linecap="round" stroke-linejoin="round"/>
<path d="M30.4884 20.0552L30.4815 28.2941C30.5111 28.5662 30.4566 28.8409 30.3253 29.081C30.194 29.3212 29.9922 29.5154 29.7471 29.6373C28.4825 30.2763 25.4837 31.2744 18.9373 31.4455C12.1383 31.623 9.16608 30.4128 7.98819 29.6634C7.77815 29.5295 7.60994 29.3393 7.5027 29.1145C7.39545 28.8897 7.3535 28.6393 7.3816 28.3918V20.0558" stroke="#274D5A" stroke-width="1.32004" stroke-linecap="round" stroke-linejoin="round"/>
<path d="M15.4875 29.646V22.3907H22.5126V29.646" stroke="#274D5A" stroke-width="1.32004" stroke-linecap="round" stroke-linejoin="round"/>
<path d="M34.4037 17.0066C29.7349 8.42427 19.013 2.55042 19.013 2.55042C19.013 2.55042 9.02607 8.06228 3.59631 17.0309" stroke="#274D5A" stroke-width="1.32004" stroke-linecap="round" stroke-linejoin="round"/>
<path d="M12.8044 15.3724C12.3389 16.6484 11.9485 17.9506 11.6351 19.2721" stroke="#274D5A" stroke-width="1.32004" stroke-linecap="round" stroke-linejoin="round"/>
<path d="M16.6445 19.9291C16.6445 19.9291 16.8088 17.9729 17.2054 15.2881" stroke="#274D5A" stroke-width="1.32004" stroke-linecap="round" stroke-linejoin="round"/>
<path d="M25.2449 15.4101C25.7103 16.6861 26.1007 17.9882 26.4141 19.3098" stroke="#274D5A" stroke-width="1.32004" stroke-linecap="round" stroke-linejoin="round"/>
<path d="M21.3555 19.9505C21.3555 19.9505 21.1919 17.9943 20.7946 15.3101" stroke="#274D5A" stroke-width="1.32004" stroke-linecap="round" stroke-linejoin="round"/>
<path d="M8.75431 15.254C8.16257 16.1889 7.57353 17.1692 6.98718 18.195" stroke="#274D5A" stroke-width="1.32004" stroke-linecap="round" stroke-linejoin="round"/>
<path d="M29.1896 15.3465C29.8016 16.3131 30.391 17.2939 30.9573 18.288" stroke="#274D5A" stroke-width="1.32004" stroke-linecap="round" stroke-linejoin="round"/>
<defs>
<filter id="filter0_d" x="0.21514" y="0.561854" width="37.5697" height="24.2298" filterUnits="userSpaceOnUse" color-interpolation-filters="sRGB">
<feFlood flood-opacity="0" result="BackgroundImageFix"/>
<feColorMatrix in="SourceAlpha" type="matrix" values="0 0 0 0 0 0 0 0 0 0 0 0 0 0 0 0 0 0 127 0"/>
<feOffset dy="1.39243"/>
<feGaussianBlur stdDeviation="1.39243"/>
<feColorMatrix type="matrix" values="0 0 0 0 0.146753 0 0 0 0 0.29618 0 0 0 0 0.258824 0 0 0 0.25 0"/>
<feBlend mode="normal" in2="BackgroundImageFix" result="effect1_dropShadow"/>
<feBlend mode="normal" in="SourceGraphic" in2="effect1_dropShadow" result="shape"/>
</filter>
<linearGradient id="paint0_linear" x1="15.4025" y1="23.3029" x2="7.47304" y2="23.3029" gradientUnits="userSpaceOnUse">
<stop stop-color="#D46C4F"/>
<stop offset="1" stop-color="#F39F72"/>
</linearGradient>
<radialGradient id="paint1_angular" cx="0" cy="0" r="1" gradientUnits="userSpaceOnUse" gradientTransform="translate(18.859 1.95428) rotate(31.373) scale(19.5272 33.4872)">
<stop stop-color="#45988E"/>
<stop offset="0.224393" stop-color="#6ECDA1"/>
</radialGradient>
</defs>
</svg>
